<?xml version="1.0" encoding="UTF-8" standalone="no"?>
<!-- Created with Inkscape (http://www.inkscape.org/) -->

<svg
   xmlns:dc="http://purl.org/dc/elements/1.1/"
   xmlns:cc="http://creativecommons.org/ns#"
   xmlns:rdf="http://www.w3.org/1999/02/22-rdf-syntax-ns#"
   xmlns:svg="http://www.w3.org/2000/svg"
   xmlns="http://www.w3.org/2000/svg"
   xmlns:sodipodi="http://sodipodi.sourceforge.net/DTD/sodipodi-0.dtd"
   xmlns:inkscape="http://www.inkscape.org/namespaces/inkscape"
   width="210mm"
   height="297mm"
   viewBox="0 0 210 297"
   version="1.1"
   id="svg8"
   inkscape:version="0.92.2 (5c3e80d, 2017-08-06)"
   sodipodi:docname="mycete.svg">
  <defs
     id="defs2" />
  <sodipodi:namedview
     id="base"
     pagecolor="#ffffff"
     bordercolor="#666666"
     borderopacity="1.0"
     inkscape:pageopacity="0.0"
     inkscape:pageshadow="2"
     inkscape:zoom="3.959798"
     inkscape:cx="223.79327"
     inkscape:cy="603.37327"
     inkscape:document-units="mm"
     inkscape:current-layer="layer1"
     showgrid="false"
     inkscape:window-width="2736"
     inkscape:window-height="1699"
     inkscape:window-x="-13"
     inkscape:window-y="-13"
     inkscape:window-maximized="1" />
  <metadata
     id="metadata5">
    <rdf:RDF>
      <cc:Work
         rdf:about="">
        <dc:format>image/svg+xml</dc:format>
        <dc:type
           rdf:resource="http://purl.org/dc/dcmitype/StillImage" />
        <dc:title></dc:title>
      </cc:Work>
    </rdf:RDF>
  </metadata>
  <g
     inkscape:label="Layer 1"
     inkscape:groupmode="layer"
     id="layer1">
    <path
       style="fill:none;stroke:#000000;stroke-width:0.26458332px;stroke-linecap:butt;stroke-linejoin:miter;stroke-opacity:1"
       d="m 229.25043,131.29288 c 9.68041,-1.42206 20.56602,0.0827 27.94015,7.01683 1.0968,1.66149 4.75487,3.59891 3.63371,5.65911 -3.19394,-0.0332 -6.43603,0.16392 -9.62989,0.59199 -4.06058,0.6798 -8.73357,1.53562 -11.39654,4.98843 -2.69906,4.11697 -2.04893,9.27886 -2.54704,13.95248 -0.21565,6.14243 1.30518,12.5685 5.29628,17.36966 -6.10266,0.0223 -12.20531,0.0445 -18.30797,0.0668 3.56739,-6.8383 3.88956,-14.97174 2.38826,-22.41565 -0.84631,-3.25472 -2.56059,-6.3172 -5.06096,-8.58762 -5.14655,-0.5592 -10.42543,0.29628 -15.16261,2.37192 0.69381,-5.12524 2.3731,-10.47998 6.53823,-13.85456 4.52645,-4.02652 10.46611,-5.99384 16.30838,-7.15939 z"
       id="path160"
       inkscape:connector-curvature="0" />
    <ellipse
       style="fill:#000000;stroke-width:0.2868444"
       id="path183"
       cx="76.940216"
       cy="144.28886"
       rx="47.607384"
       ry="47.473743"
       inkscape:export-xdpi="107.16573"
       inkscape:export-ydpi="107.16573" />
    <path
       style="fill:#ffffff;stroke-width:0.06681738"
       d="m 67.507726,168.8699 c 0.08674,-0.15619 0.336603,-0.68989 0.55525,-1.18601 1.17584,-2.66805 1.855306,-5.5194 2.221155,-9.32103 0.114716,-1.19202 0.158512,-5.5313 0.06778,-6.71514 -0.421397,-5.49809 -2.077519,-9.58659 -5.148265,-12.7096 l -0.769596,-0.78269 -1.302938,-0.0791 c -1.37359,-0.0834 -3.601114,-0.048 -4.777444,0.0759 -2.863982,0.30182 -5.667404,0.99101 -8.27333,2.0339 -0.250632,0.10031 -0.469252,0.16882 -0.485823,0.15225 -0.05426,-0.0543 0.374923,-2.80247 0.573524,-3.67252 0.8093,-3.54547 2.368069,-6.37629 4.905891,-8.90941 1.775973,-1.77269 3.603469,-3.05808 6.219703,-4.37469 2.825515,-1.42194 5.981705,-2.49076 9.780328,-3.31205 2.170997,-0.46938 6.029886,-0.728 9.277837,-0.62179 1.699408,0.0556 2.479932,0.12045 4.027239,0.33474 8.245416,1.14191 14.711312,4.97362 19.399713,11.49632 0.28153,0.39168 0.51187,0.72545 0.51187,0.74172 0,0.0163 -0.56377,0.05 -1.25283,0.075 -7.364241,0.26671 -11.885079,0.95123 -15.969999,2.4181 -1.939557,0.69649 -3.959545,2.22155 -4.863484,3.67186 -1.393507,2.23579 -1.979393,5.75732 -2.235866,13.4389 -0.150794,4.51637 0.330583,7.95434 1.577795,11.26851 0.654986,1.74048 1.851747,3.971 2.934922,5.47009 l 0.498938,0.69053 -0.951997,0.0417 c -0.5236,0.0229 -4.490368,0.0455 -8.815044,0.0501 l -7.863043,0.008 z"
       id="path170"
       inkscape:connector-curvature="0"
       inkscape:export-xdpi="107.16573"
       inkscape:export-ydpi="107.16573" />
  </g>
</svg>
